HIERARCHY
ROOT Hips
{
    OFFSET 0.000000 0.000000 0.000000
    CHANNELS 6 Xposition Yposition Zposition Zrotation Xrotation Yrotation
    JOINT Spine
    {
        OFFSET -0.000000 14.517291 0.000000
        CHANNELS 3 Zrotation Xrotation Yrotation
        JOINT Spine1
        {
            OFFSET -0.000000 37.558300 0.000000
            CHANNELS 3 Zrotation Xrotation Yrotation
            JOINT Neck
            {
                OFFSET -0.000000 37.404057 3.400369
                CHANNELS 3 Zrotation Xrotation Yrotation
                JOINT Head
                {
                    OFFSET -0.000000 24.785618 -3.540803
                    CHANNELS 3 Zrotation Xrotation Yrotation
                    End Site
                    {
                        OFFSET -0.000000 35.408028 0.000000
                    }
                }
            }
            JOINT LeftShoulder
            {
                OFFSET 6.992933 33.973492 -0.192664
                CHANNELS 3 Zrotation Xrotation Yrotation
                JOINT LeftArm
                {
                    OFFSET 21.527611 0.000000 0.000000
                    CHANNELS 3 Zrotation Xrotation Yrotation
                    JOINT LeftForeArm
                    {
                        OFFSET 56.353916 0.000000 0.000000
                        CHANNELS 3 Zrotation Xrotation Yrotation
                        JOINT LeftHand
                        {
                            OFFSET 47.774071 0.000000 0.000000
                            CHANNELS 3 Zrotation Xrotation Yrotation
                            End Site
                            {
                                OFFSET 26.556021 0.000000 0.000000
                            }
                        }
                    }
                }
            }
            JOINT RightShoulder
            {
                OFFSET -7.065357 33.973492 -0.192664
                CHANNELS 3 Zrotation Xrotation Yrotation
                JOINT RightArm
                {
                    OFFSET -21.527611 0.000000 0.000000
                    CHANNELS 3 Zrotation Xrotation Yrotation
                    JOINT RightForeArm
                    {
                        OFFSET -56.353916 0.000000 0.000000
                        CHANNELS 3 Zrotation Xrotation Yrotation
                        JOINT RightHand
                        {
                            OFFSET -47.774071 0.000000 0.000000
                            CHANNELS 3 Zrotation Xrotation Yrotation
                            End Site
                            {
                                OFFSET -26.556021 0.000000 0.000000
                            }
                        }
                    }
                }
            }
        }
    }
    JOINT LeftUpLeg
    {
        OFFSET 17.704014 0.000000 0.000000
        CHANNELS 3 Zrotation Xrotation Yrotation
        JOINT LeftLeg
        {
            OFFSET -0.000000 -81.181816 0.000000
            CHANNELS 3 Zrotation Xrotation Yrotation
            JOINT LeftFoot
            {
                OFFSET -0.000000 -62.821102 0.000000
                CHANNELS 3 Zrotation Xrotation Yrotation
                JOINT LeftToeBase
                {
                    OFFSET -0.000000 -11.507608 26.556021
                    CHANNELS 3 Zrotation Xrotation Yrotation
                    End Site
                    {
                        OFFSET -0.000000 0.000000 7.081605
                    }
                }
            }
        }
    }
    JOINT RightUpLeg
    {
        OFFSET -17.704014 0.000000 0.000000
        CHANNELS 3 Zrotation Xrotation Yrotation
        JOINT RightLeg
        {
            OFFSET -0.000000 -81.181816 0.000000
            CHANNELS 3 Zrotation Xrotation Yrotation
            JOINT RightFoot
            {
                OFFSET -0.000000 -62.821102 0.000000
                CHANNELS 3 Zrotation Xrotation Yrotation
                JOINT RightToeBase
                {
                    OFFSET -0.000000 -11.507608 26.556021
                    CHANNELS 3 Zrotation Xrotation Yrotation
                    End Site
                    {
                        OFFSET -0.000000 0.000000 7.081605
                    }
                }
            }
        }
    }
}
MOTION
Frames:    9
Frame Time:    0.008333
4.600398    153.691071    -80.817131    2.249259    -3.807058    31.876301    -2.124613    1.261592    0.182187    -1.280692    1.633299    0.071187    2.129885    6.965373    -14.007667    9.601501    -6.409914    -12.896742    0.177648    9.478670    -12.121650    -36.593330    20.764046    -42.614765    -4.647428    -30.065968    -120.270447    -12.752899    -35.791180    -11.460806    0.125557    11.753609    -5.227599    29.509834    16.734262    46.766460    -1.448455    11.591320    34.289997    -17.854071    6.095441    36.901947    14.231097    -1.216987    -2.977354    -13.991891    36.133785    -23.363607    9.806514    -27.104076    48.984852    0.000000    0.000000    0.000000    -20.139008    -16.575932    -6.060311    4.409872    17.771751    -12.817094    19.475542    -3.112577    -19.115114    0.000000    0.000000    0.000000    
4.509675    153.727173    -80.725128    2.233030    -3.814092    32.044266    -2.118491    1.274986    0.140851    -1.292917    1.614464    0.058239    2.139145    6.954483    -14.044882    9.592122    -6.361195    -12.942470    0.190626    9.504541    -12.133247    -36.583843    20.827959    -42.661541    -4.367235    -30.098730    -120.095116    -12.709954    -35.384697    -11.673288    0.150850    11.740774    -5.234973    29.486887    16.760302    46.756126    -1.477494    11.623244    34.318161    -17.850107    6.119843    37.009136    14.310214    -1.231777    -3.038879    -13.970024    36.053947    -23.392086    9.726019    -27.048655    48.912041    0.000000    0.000000    0.000000    -20.029072    -16.617935    -5.633868    4.375779    17.896667    -12.599086    19.497078    -3.135072    -19.225016    0.000000    0.000000    0.000000    
4.426290    153.763809    -80.624214    2.225027    -3.820797    32.216534    -2.110541    1.276651    0.102300    -1.313830    1.605026    0.043712    2.133258    6.979703    -14.096575    9.617572    -6.346650    -12.991763    0.200636    9.537267    -12.167432    -36.576653    20.846819    -42.717270    -4.637726    -30.115566    -120.259918    -12.725406    -35.824997    -11.455242    0.172936    11.742249    -5.247358    29.446932    16.859516    46.745403    -1.587646    11.549414    34.377266    -17.776709    6.115674    36.945915    14.376926    -1.229982    -3.083020    -13.911281    35.961128    -23.468845    9.647323    -26.994827    48.832371    0.000000    0.000000    0.000000    -19.937000    -16.646692    -5.242604    4.361477    18.009476    -12.441141    19.410717    -3.116474    -19.232832    0.000000    0.000000    0.000000    
4.353625    153.800385    -80.528511    2.223153    -3.827629    32.387722    -2.106133    1.296112    0.052769    -1.306101    1.570709    0.027806    2.098117    7.007703    -14.138314    9.627075    -6.330878    -13.031287    0.157396    9.559521    -12.185725    -36.592880    20.825157    -42.718517    -4.683808    -30.035425    -120.287437    -12.765922    -35.815472    -11.458030    0.143586    11.756844    -5.252378    29.487978    16.823856    46.750023    -1.552155    11.647187    34.339710    -17.802307    6.168513    37.096748    14.435474    -1.224486    -3.133073    -13.864131    35.872528    -23.514156    9.568740    -26.940641    48.733486    0.000000    0.000000    0.000000    -19.859360    -16.667427    -4.900350    4.346472    18.145540    -12.253162    19.322021    -3.143934    -19.184967    0.000000    0.000000    0.000000    
4.284445    153.830536    -80.431595    2.226102    -3.817044    32.567570    -2.090220    1.298551    0.001617    -1.368224    1.549679    0.004945    2.107447    7.025743    -14.186901    9.661454    -6.307760    -13.077806    0.181742    9.570878    -12.194107    -36.586288    20.872391    -42.757847    -4.667770    -30.055782    -120.301132    -12.743461    -35.816849    -11.441664    0.171085    11.768895    -5.277379    29.530272    16.702389    46.764004    -1.420004    11.843813    34.324402    -18.080185    6.210490    37.219234    14.470877    -1.230431    -3.156209    -13.774385    35.779781    -23.575787    9.472540    -26.893747    48.621971    0.000000    0.000000    0.000000    -19.820070    -16.699854    -4.498063    4.395891    18.273975    -12.189404    19.261061    -3.146388    -19.209715    0.000000    0.000000    0.000000    
4.209485    153.858765    -80.327995    2.242845    -3.803201    32.743519    -2.092883    1.412214    -0.032025    -1.421644    1.372677    -0.003993    2.128655    6.991124    -14.249682    9.633427    -6.182107    -13.161680    0.185149    9.605414    -12.182702    -36.597492    20.924391    -42.779846    -4.673261    -29.991089    -120.339462    -12.767869    -35.766106    -11.451006    0.220904    11.798269    -5.385468    29.491596    16.819763    46.782410    -1.529218    11.845123    34.366676    -18.026566    6.243261    37.339569    14.498886    -1.226698    -3.161096    -13.670012    35.686390    -23.679371    9.358254    -26.858633    48.514610    0.000000    0.000000    0.000000    -19.788534    -16.710447    -4.196834    4.407073    18.377552    -11.988506    19.209764    -3.179369    -19.269527    0.000000    0.000000    0.000000    
4.134381    153.884201    -80.210358    2.265034    -3.796080    32.928913    -2.125210    1.396190    -0.070231    -1.442703    1.391902    -0.015368    2.151044    7.003453    -14.302310    9.638294    -6.182142    -13.217447    0.206042    9.608055    -12.229245    -36.577328    20.977766    -42.813366    -4.639551    -30.050837    -120.348312    -12.797542    -35.771194    -11.469985    0.246288    11.759191    -5.389659    29.455381    16.868252    46.728020    -1.537281    11.874111    34.391857    -18.052956    6.250321    37.430847    14.526824    -1.215693    -3.141132    -13.532763    35.609936    -23.836496    9.241402    -26.831057    48.413628    0.000000    0.000000    0.000000    -19.754522    -16.715897    -3.942282    4.406735    18.516104    -11.805193    19.109688    -3.175430    -19.204353    0.000000    0.000000    0.000000    
4.056487    153.907227    -80.098473    2.278329    -3.788198    33.099556    -2.171719    1.389562    -0.101425    -1.424317    1.390517    -0.026141    2.139392    7.025282    -14.359877    9.671865    -6.179484    -13.269981    0.214208    9.613783    -12.257902    -36.596287    20.987408    -42.849312    -4.623955    -30.036236    -120.349258    -12.856827    -35.727718    -11.500285    0.247328    11.731730    -5.390930    29.506578    16.765808    46.670158    -1.375786    11.982370    34.392006    -18.130699    6.301910    37.328049    14.569323    -1.207973    -3.134526    -13.432918    35.527882    -23.990416    9.146012    -26.794670    48.351883    0.000000    0.000000    0.000000    -19.711609    -16.729788    -3.693257    4.402378    18.626472    -11.677994    19.003860    -3.105260    -19.168127    0.000000    0.000000    0.000000    
3.979481    153.922089    -79.985336    2.298697    -3.778638    33.263939    -2.197771    1.397023    -0.132237    -1.452974    1.366109    -0.036306    2.134647    7.053332    -14.403886    9.719748    -6.169908    -13.306639    0.239564    9.642428    -12.282841    -36.597614    20.965816    -42.885235    -4.634343    -30.002481    -120.369438    -12.858932    -35.712288    -11.511385    0.263944    11.736779    -5.389744    29.538361    16.696737    46.617344    -1.282347    12.023563    34.428162    -18.091722    6.353778    37.187416    14.605092    -1.199319    -3.107675    -13.320645    35.456154    -24.150639    9.066740    -26.758986    48.274639    0.000000    0.000000    0.000000    -19.679344    -16.737885    -3.459113    4.389341    18.730228    -11.529753    18.905355    -3.029885    -19.130022    0.000000    0.000000    0.000000    
